# xmcd CD database file
#
# Track frame offsets:
#	183
#	11438
#	20215
#	33323
#	46583
#	59193
#	73620
#	88365
#	102775
#	115005
#	126480
#	136725
#
# Disc length: 1959 seconds
#
# Revision: 1
# Processed by: cddbd v1.5.2PL0 Copyright (c) Steve Scherf et al.
# Submitted via: CDex 1.70beta2
#
DISCID=a507a50c
DTITLE=John Mogensen - Taurus
DYEAR=1975
DGENRE=Pop-Folk
TTITLE0=Grufuldt mareridt
TTITLE1=Du si'r jeg ska' gi' dig en chance
TTITLE2=Vidste du det
TTITLE3=Ensomhedens gade no. 9
TTITLE4=Kør langsomt
TTITLE5=Den gamle violin
TTITLE6=Nina, kære Nina
TTITLE7=Hvilken herlig dag
TTITLE8=Mennesker bli'r spist i Polynesien
TTITLE9=Conny bli'r hos mig
TTITLE10=Falmede roser
TTITLE11=Morfar
EXTD=Pool Records\nPOCD 2641 YEAR: 1975
EXTT0=
EXTT1=
EXTT2=
EXTT3=
EXTT4=
EXTT5=
EXTT6=
EXTT7=
EXTT8=
EXTT9=
EXTT10=
EXTT11=
PLAYORDER=
